<svg width="547" height="404" viewBox="0 0 547 404" fill="none" xmlns="http://www.w3.org/2000/svg">
<g clip-path="url(#clip0_39_17)">
<path d="M112.047 394.6L120.492 394.599L124.509 362.076L112.045 362.076L112.047 394.6Z" fill="#9E616A"/>
<path d="M109.893 391.847L112.27 391.847L121.55 388.079L126.523 391.846H126.524C129.335 391.847 132.03 392.962 134.018 394.946C136.005 396.931 137.122 399.622 137.122 402.429V402.773L109.893 402.774L109.893 391.847Z" fill="#2F2E41"/>
<path d="M151.279 394.6L159.724 394.599L163.741 362.076L151.277 362.076L151.279 394.6Z" fill="#9E616A"/>
<path d="M149.125 391.847L151.502 391.847L160.782 388.079L165.756 391.846H165.756C168.567 391.847 171.263 392.962 173.25 394.946C175.238 396.931 176.354 399.622 176.354 402.429V402.773L149.125 402.774L149.125 391.847Z" fill="#2F2E41"/>
<path d="M158.029 216.611L91.6807 218.34L92.8345 250.601C92.8345 250.601 91.6807 259.242 93.9884 261.547C96.2962 263.851 97.4501 263.851 96.2962 267.884C95.1423 271.917 101.239 278.503 100.498 279.242C99.7579 279.982 98.027 284.014 98.027 284.014L103.796 316.852C103.796 316.852 107.835 373.885 108.989 375.038C110.143 376.19 111.297 375.038 110.143 377.918C108.989 380.798 107.835 379.646 108.989 380.799C110.011 381.899 110.974 383.053 111.874 384.255H125.823C125.823 384.255 126.874 378.494 126.874 377.918C126.874 377.342 128.028 373.885 128.028 373.309C128.028 372.733 127.008 371.715 127.008 371.715C126.656 370.544 126.418 369.341 126.297 368.124C126.297 366.972 122.836 322.613 122.836 322.613L129.759 265.003L146.49 321.461C146.49 321.461 146.49 371.005 147.644 372.157C148.798 373.309 148.798 372.733 148.221 375.038C147.644 377.342 145.336 376.766 147.067 378.494C148.798 380.222 149.375 377.342 148.798 380.222L148.221 383.103L165.53 383.35C165.53 383.35 167.837 378.494 166.683 376.766C165.53 375.038 165.599 375.509 167.007 372.681C168.414 369.853 168.991 369.277 168.414 368.701C167.837 368.124 167.837 365.06 167.837 365.06L164.953 309.939C164.953 309.939 164.376 251.753 164.376 250.025C164.332 249.136 164.496 248.248 164.855 247.433V245.087L162.645 236.775L158.029 216.611Z" fill="#2F2E41"/>
<path d="M233.115 90.9635C232.797 91.8484 232.287 92.6529 231.623 93.32C230.96 93.9872 230.157 94.5009 229.273 94.825C228.389 95.149 227.444 95.2756 226.506 95.1957C225.567 95.1158 224.658 94.8315 223.841 94.3626L195.041 118.455L193.476 106.679L221.645 85.1466C222.525 83.8292 223.858 82.8798 225.392 82.4782C226.926 82.0767 228.554 82.2509 229.968 82.9679C231.382 83.6849 232.483 84.8949 233.063 86.3685C233.643 87.8421 233.662 89.4771 233.115 90.9635Z" fill="#9E616A"/>
<path d="M106.121 100.907C115.999 100.907 124.006 92.9113 124.006 83.048C124.006 73.1848 115.999 65.1891 106.121 65.1891C96.2432 65.1891 88.2357 73.1848 88.2357 83.048C88.2357 92.9113 96.2432 100.907 106.121 100.907Z" fill="#9E616A"/>
<path d="M120.621 65.2746C118.955 61.3117 111.82 58.9589 100.528 59.3132C89.2363 59.6676 87.2589 73.1132 87.2589 73.1132C81.0395 78.9016 91.0806 96.974 92.8227 94.4823C94.5647 91.9906 97.4896 94.3458 97.4896 94.3458L94.7022 78.6907C97.6457 79.8214 100.811 80.5807 103.58 79.2633L98.9928 76.814C102.795 77.2864 106.597 77.7588 110.398 78.2312L105.695 74.6179C105.809 74.5803 105.923 74.5413 106.037 74.5029C107.923 75.3151 109.943 75.7731 111.996 75.8539C114.394 75.8361 116.942 74.714 117.947 72.5397C118.215 71.9427 118.359 71.2982 118.373 70.6444C121.679 71.7164 123.416 75.5841 123.416 75.5841C122.788 72.0726 121.853 68.6228 120.621 65.2746Z" fill="#2F2E41"/>
<path d="M120.437 101.706C116.443 101.706 113.871 102.256 107.656 103.301C96.1853 105.231 103.055 116.115 103.055 116.115C103.055 116.115 103.574 115.852 102.168 116.115C100.763 116.378 95.9696 120.518 95.9696 120.518L87.3983 128.119C74.4815 138.241 77.3732 154.035 77.3732 154.035L96.2093 172.963L87.9575 210.938C87.9575 210.938 91.4643 216.578 89.651 219.106C87.8376 221.635 105.627 220.909 105.627 220.909C117.905 226.373 161.161 221.754 161.161 221.754C160.562 220.191 154.77 208.075 154.77 208.075C157.287 203.736 154.89 197.466 154.89 197.466C154.89 197.466 152.39 167.81 150.792 163.71C149.195 159.61 154.882 137.396 158.621 137.635C162.359 137.874 186.507 125.575 186.507 125.575C186.507 125.575 185.9 124.61 193.872 121.355C198.452 119.559 202.65 116.915 206.246 113.562L209.521 107.03C207.948 107.636 202.635 97.6334 202.635 97.6334L200.319 98.5152L198.977 98.128C198.977 98.128 188.504 101.103 186.364 103.273C184.223 105.442 183.504 104.836 181.571 105.323C179.638 105.809 179.398 107.165 178.791 107.014C178.184 106.862 177.105 108.697 176.259 108.457C175.412 108.218 173.598 109.183 172.392 109.423C171.186 109.662 162.615 113.283 162.615 113.283C157.311 110.603 142.932 111.688 142.932 111.688C142.932 111.688 138.227 108.92 136.893 111.688C136.534 112.474 135.958 113.142 135.232 113.612C134.506 114.083 133.66 114.337 132.795 114.344L127.059 111.895C126.726 113.11 120.47 100.446 120.437 101.706Z" fill="#5AB1D0"/>
<path d="M93.0544 250.333C92.428 249.63 91.9634 248.799 91.6934 247.898C91.4234 246.997 91.3545 246.048 91.4916 245.118C91.6287 244.187 91.9684 243.298 92.4869 242.513C93.0053 241.728 93.6899 241.066 94.4923 240.573L86.3664 208.677L97.4761 212.928L103.65 243.048C104.389 244.449 104.588 246.072 104.209 247.609C103.83 249.147 102.899 250.492 101.593 251.39C100.287 252.288 98.6963 252.676 97.1226 252.481C95.5489 252.286 94.1014 251.522 93.0544 250.333Z" fill="#9E616A"/>
<path d="M78.1001 147.969L77.0966 160.706C77.0966 160.706 75.8492 174.699 76.1759 177.287C76.5025 179.875 77.1107 195.677 77.1107 195.677L87.6859 216.566L99.6682 213.376L98.9511 203.576L99.6682 212.578L101.266 204.601L97.2717 191.042L99.6682 186.256L98.4596 170.19L78.1001 147.969Z" fill="#5AB1D0"/>
<path d="M361.793 118.2L365.748 119.047C365.774 117.395 365.981 115.75 366.363 114.142C366.723 116.111 367.481 117.986 368.591 119.653L391.279 124.491L413.062 101.537C413.095 90.0602 406.712 81.3385 395.268 81.3385C394.578 81.3385 393.864 81.3716 393.141 81.438C386.958 80.4047 380.614 81.8073 375.446 85.3503C370.278 88.8933 366.688 94.3005 365.433 100.433C357.321 108.408 360.263 113.097 361.793 118.2Z" fill="#2F2E41"/>
<path d="M350.638 386.635H342.409L338.494 354.938H350.64L350.638 386.635Z" fill="#FFB6B6"/>
<path d="M354.32 402.239H348.48L347.438 396.733L344.768 402.239H329.279C328.537 402.239 327.814 402.002 327.216 401.563C326.618 401.123 326.176 400.505 325.955 399.797C325.734 399.089 325.746 398.329 325.988 397.629C326.23 396.928 326.69 396.323 327.301 395.901L339.67 387.372V381.806L352.679 382.581L354.32 402.239Z" fill="#2F2E41"/>
<path d="M447.054 377.69L439.896 381.745L420.826 356.106L431.39 350.121L447.054 377.69Z" fill="#FFB6B6"/>
<path d="M457.968 389.447L452.889 392.325L449.261 388.051L449.66 394.154L436.189 401.786C435.544 402.152 434.798 402.303 434.06 402.215C433.323 402.128 432.633 401.807 432.091 401.301C431.549 400.794 431.184 400.128 431.048 399.399C430.912 398.67 431.013 397.917 431.337 397.249L437.879 383.736L435.128 378.895L446.826 373.159L457.968 389.447Z" fill="#2F2E41"/>
<path d="M320.218 123.754C321.273 123.906 322.281 124.287 323.172 124.871C324.063 125.454 324.815 126.226 325.375 127.131C325.935 128.036 326.29 129.053 326.414 130.11C326.538 131.166 326.428 132.237 326.093 133.247L338.686 144.131L333.929 153.386L316.36 137.766C314.699 137.091 313.343 135.831 312.549 134.224C311.756 132.618 311.581 130.776 312.056 129.049C312.531 127.322 313.625 125.829 315.129 124.853C316.634 123.877 318.444 123.486 320.218 123.754Z" fill="#FFB6B6"/>
<path d="M331.104 157.629L322.681 144.248L332.046 134.687L338.698 142.769L346.937 146.44L358.245 153.319C360.494 150.677 377.82 130.801 385.551 136.524C386.479 137.156 387.259 137.981 387.838 138.943C388.417 139.904 388.78 140.979 388.903 142.094C389.449 147.415 384.673 152.827 384.492 153.027L374.279 166.784C373.962 167.648 370.583 176.556 365.309 178.952C364.561 179.31 363.745 179.509 362.916 179.536C362.086 179.563 361.259 179.418 360.489 179.11C346.516 173.67 337.101 167.535 332.9 161.182C332.157 160.076 331.553 158.883 331.104 157.629Z" fill="#2F2E41"/>
<path d="M362.271 185.556C362.271 185.556 338.073 224.044 342.457 228.421C346.841 232.799 353.663 233.948 353.663 233.948L368.761 214.413L362.271 185.556Z" fill="#2F2E41"/>
<path d="M383.666 132.991L372.261 140.695C366.96 144.275 362.974 149.484 360.905 155.532C358.837 161.579 358.8 168.136 360.8 174.206L364.011 183.951L383.666 132.991Z" fill="#2F2E41"/>
<path d="M403.833 238.052L405.358 243.355L410.56 307.302L436.554 355.674L424.147 364.523L388.702 318.511L374.682 272.824L352.665 373.961L336.123 372.781L347.611 232.555L369.412 193.086L403.833 238.052Z" fill="#2F2E41"/>
<path d="M385.606 134.928L369.733 147.881C366.249 150.724 363.74 154.582 362.557 158.916C362.019 160.884 361.764 162.918 361.798 164.958L362.271 193.085L347.717 231.924C347.717 231.924 387.173 246.807 392.434 233.675C397.695 220.542 385.606 134.928 385.606 134.928Z" fill="#5AB1D0"/>
<path d="M363.5 220.542L360.869 210.036L361.512 183.895C361.563 182.376 369.671 158.735 379.89 133.625L388.681 124.847L393.42 121.767L403.853 131.383C403.853 131.383 402.526 157.702 402.956 184.646C403.075 192.101 401.762 200.807 401.202 207.409L405.995 228.676V240.514L405.684 240.577C405.372 240.64 400.569 240.492 380.858 240.492C364.527 240.492 375.399 228.929 363.5 220.542Z" fill="#2F2E41"/>
<path opacity="0.2" d="M399.43 154.855L401.828 169.789L385.605 176.471L399.43 154.855Z" fill="black"/>
<path d="M383.09 118.966C391.861 118.966 398.972 111.865 398.972 103.107C398.972 94.3485 391.861 87.2483 383.09 87.2483C374.318 87.2483 367.208 94.3485 367.208 103.107C367.208 111.865 374.318 118.966 383.09 118.966Z" fill="#FFB6B6"/>
<path opacity="0.2" d="M409.702 183.572C405.475 188.459 399.741 191.805 393.402 193.085C387.064 194.364 380.479 193.504 374.683 190.64L371.226 188.932L409.702 183.572Z" fill="black"/>
<path d="M354.436 179.921C355.144 179.127 356.019 178.497 356.997 178.076C357.976 177.655 359.035 177.453 360.1 177.486C361.165 177.518 362.21 177.783 363.162 178.262C364.113 178.741 364.948 179.422 365.607 180.258L381.643 175.763L386.755 184.827L364.02 190.858C362.54 191.87 360.74 192.306 358.96 192.081C357.18 191.857 355.545 190.988 354.363 189.64C353.182 188.292 352.537 186.558 352.55 184.767C352.564 182.976 353.234 181.252 354.436 179.921V179.921Z" fill="#FFB6B6"/>
<path d="M388.744 189.519L372.92 189.163L370.091 176.091L380.511 175.003L388.119 170.16L400.099 164.529C399.13 161.2 392.069 135.81 401.112 132.522C402.151 132.097 403.271 131.901 404.393 131.949C405.515 131.997 406.614 132.287 407.614 132.798C412.361 135.275 414.252 142.237 414.32 142.499L420.188 158.589C420.735 159.33 426.317 167.055 425.414 172.769C425.3 173.59 425.017 174.379 424.582 175.085C424.148 175.792 423.571 176.4 422.888 176.872C410.642 185.518 400.327 189.981 392.703 189.98C391.369 189.99 390.039 189.835 388.744 189.519Z" fill="#2F2E41"/>
<path d="M364.045 92.6742C365.316 94.3256 369.696 95.7861 374.899 96.9645C374.89 96.8567 374.89 96.7488 374.89 96.6409C374.916 94.9886 375.122 93.3441 375.505 91.7365C375.865 93.7052 376.623 95.5801 377.733 97.2467C377.816 97.3712 377.899 97.4956 377.99 97.6201C382.453 98.4998 387.174 99.1803 390.872 99.6367C388.329 108.782 378.58 116.284 379.636 121.844L408.2 127.669C408.024 125.359 408.209 123.035 408.748 120.781C409.295 123.756 410.739 126.492 412.887 128.623L415.314 129.121L416.037 125.561C422.303 110.533 413.569 95.1472 399.257 87.1889C396.706 83.3695 392.744 80.7141 388.237 79.8032L384.672 79.0729C382.423 78.6135 380.106 78.6009 377.852 79.0358C375.598 79.4707 373.453 80.3446 371.537 81.6076C369.622 82.8706 367.974 84.498 366.689 86.3968C365.403 88.2956 364.505 90.4287 364.045 92.6742Z" fill="#2F2E41"/>
<path d="M13.652 382.938L13.2672 374.299C9.2556 372.157 4.78121 371.026 0.232544 371.004C6.49287 376.115 5.7105 385.966 9.95483 392.839C11.2951 394.972 13.0989 396.777 15.2327 398.12C17.3664 399.463 19.7754 400.309 22.2812 400.595L27.52 403.798C28.2389 399.797 28.0804 395.687 27.0555 391.752C26.0306 387.818 24.1636 384.152 21.5832 381.007C20.1181 379.257 18.4381 377.699 16.5829 376.368C15.3282 379.672 13.652 382.938 13.652 382.938Z" fill="#F2F2F2"/>
<path d="M0.951106 404H546.049C546.301 403.999 546.542 403.899 546.72 403.721C546.897 403.543 546.997 403.302 546.997 403.05C546.997 402.799 546.897 402.558 546.72 402.38C546.542 402.202 546.301 402.101 546.049 402.101H0.951106C0.699326 402.101 0.458125 402.202 0.280347 402.38C0.102569 402.558 0.00273132 402.799 0.00273132 403.05C0.00273132 403.302 0.102569 403.543 0.280347 403.721C0.458125 403.899 0.699326 403.999 0.951106 404Z" fill="#CACACA"/>
<path d="M296.665 54.2826C298.641 62.9528 299.581 72.7822 294.309 80.541C292.069 83.8695 288.78 86.3568 284.965 87.6095C281.103 88.7529 277.03 89.0027 273.057 88.3398C264.066 87.096 256.075 82.4196 247.233 80.604C243.331 79.8028 239.19 79.538 235.433 81.0799C232.618 82.2353 229.654 84.5582 229.64 87.8716C229.627 91.2742 232.586 93.5326 235.53 94.5787C239.457 95.9746 243.539 95.4344 247.612 95.2584C252 95.0689 256.474 95.4651 260.119 98.1481C263.253 100.591 265.657 103.846 267.069 107.558C268.901 111.998 269.645 116.771 270.816 121.403C271.864 125.568 273.345 129.612 275.236 133.468C278.946 141.027 284.148 147.759 290.528 153.261C293.675 155.965 297.498 158.72 301.796 158.968C305.111 159.159 309.14 157.768 310.418 154.416C310.892 152.969 310.846 151.401 310.286 149.984C309.727 148.567 308.689 147.39 307.353 146.656C304.512 145.224 301.418 147.266 300.501 150.069C300.26 150.715 300.176 151.408 300.255 152.093C300.335 152.778 300.575 153.434 300.957 154.008C301.818 155.291 299.743 156.49 298.888 155.216C296.901 152.258 297.939 148.28 300.372 145.911C301.559 144.703 303.146 143.967 304.836 143.841C306.526 143.715 308.205 144.208 309.558 145.227C310.964 146.296 312.027 147.752 312.616 149.415C313.205 151.078 313.295 152.877 312.875 154.591C311.854 158.274 308.23 160.616 304.611 161.196C300.143 161.913 295.842 160.159 292.235 157.626C288.616 155.017 285.325 151.982 282.434 148.586C276.557 141.837 272.139 133.949 269.456 125.415C266.818 116.975 266.627 105.826 258.789 100.126C254.756 97.1928 249.814 97.5181 245.085 97.7873C240.911 98.025 236.839 97.9818 233.009 96.0948C229.847 94.5367 227.296 91.6608 227.244 87.9968C227.19 84.298 229.82 81.3238 232.919 79.6387C241.105 75.1869 250.936 78.7772 258.978 81.7514C267.065 84.7423 276.299 88.2528 284.894 85.1053C288.861 83.5661 292.055 80.519 293.775 76.6321C295.856 72.2249 296.153 67.2243 295.672 62.4413C295.388 59.9091 294.948 57.3967 294.354 54.9188C294.012 53.4195 296.322 52.7793 296.665 54.2827V54.2826Z" fill="#3F3D56"/>
<path d="M281.976 29.9609C284.346 37.8614 287.918 45.3511 292.568 52.1672C293.719 53.8422 294.927 55.4747 296.195 57.0647C297.18 55.277 298.373 53.6117 299.75 52.1034C304.582 46.7991 311.061 43.3293 317.348 39.8516C323.634 36.3739 330.017 32.6409 334.458 27.0016C336.451 24.4631 337.878 21.5288 338.644 18.3951C339.65 14.1436 339.267 9.70875 336.783 6.15925C333.172 0.998511 325.975 -0.820115 319.856 0.671474C313.729 2.16306 308.601 6.41448 304.622 11.296C305.924 5.29779 299.59 -0.493084 293.463 0.0333586C287.336 0.567778 282.423 5.91197 280.794 11.8305C279.156 17.741 280.219 24.0743 281.976 29.9609Z" fill="#5AB1D0"/>
<g opacity="0.2">
<path d="M292.568 52.1671C293.719 53.8422 294.927 55.4747 296.195 57.0647C297.18 55.2769 298.373 53.6116 299.75 52.1033C304.582 46.799 311.061 43.3293 317.348 39.8516C323.634 36.3738 330.017 32.6409 334.458 27.0016C336.451 24.463 337.878 21.5287 338.644 18.395C324.511 20.3514 311.525 27.2303 301.978 37.8176C298.156 42.1157 294.986 46.9503 292.568 52.1671Z" fill="black"/>
</g>
</g>
<defs>
<clipPath id="clip0_39_17">
<rect width="547" height="404" fill="white"/>
</clipPath>
</defs>
</svg>
